# xmcd CD database file
#
# Track frame offsets:
#	150
#	39485
#	77252
#	114035
#	155019
#	194465
#
# Disc length: 3419 seconds
#
# Revision: 1
# Processed by: cddbd v1.5.1PL0 Copyright (c) Steve Scherf et al.
# Submitted via: CDex 1.51
#
DISCID=3b0d5906
DTITLE=The Lithium Project - Passo Fundo
DYEAR=2001
DGENRE=Jazz
TTITLE0=Passo Fundo
TTITLE1=Earthy Egos (3rd Eye)
TTITLE2=Fundo Passo (Re-Collective)
TTITLE3=Mars Plastic (3rd Eye)
TTITLE4=Moments In Neon
TTITLE5=Resurgan
EXTD=YEAR: 2001
EXTT0=
EXTT1=
EXTT2=
EXTT3=
EXTT4=
EXTT5=
PLAYORDER=
